/* XPM */
static char *WLANalyse[] = {
/* columns rows colors chars-per-pixel */
"75 75 247 2",
"   c #010101",
".  c #060608",
"X  c #0B0B0B",
"o  c #131313",
"O  c #1B1B1B",
"+  c #3E1817",
"@  c #222323",
"#  c #2C2C2C",
"$  c #333333",
"%  c gray23",
"&  c #434343",
"*  c #4C4C4C",
"=  c #44504E",
"-  c #545454",
";  c #5E5E5E",
":  c #656565",
">  c #676968",
",  c #6C6C6C",
"<  c #7D7D7D",
"1  c #D21819",
"2  c #F50D0D",
"3  c #EE0F10",
"4  c #EE1313",
"5  c #EE1C1C",
"6  c #F01A1B",
"7  c #F7201E",
"8  c #EE2324",
"9  c #EF2A2B",
"0  c #F02020",
"q  c #F12B2B",
"w  c #FC2A29",
"e  c #F02F30",
"r  c #E23636",
"t  c #EE3434",
"y  c #EE3837",
"u  c #EE3C3C",
"i  c #F03232",
"p  c #CA6D05",
"a  c #D67605",
"s  c #D27B15",
"d  c #D77F1B",
"f  c #EE403F",
"g  c #ED3F40",
"h  c #986E6F",
"j  c #EE4343",
"k  c #EE4B4B",
"l  c #F14546",
"z  c #F04848",
"x  c #EE504F",
"c  c #EE4E50",
"v  c #EE5454",
"b  c #ED5758",
"n  c #ED5C5C",
"m  c #F05656",
"M  c #F0575A",
"N  c #ED605F",
"B  c #ED6464",
"V  c #EE6867",
"C  c #EC6768",
"Z  c #ED6C6C",
"A  c #ED716F",
"S  c #ED6F70",
"D  c #ED7474",
"F  c #EA7877",
"G  c #ED7678",
"H  c #ED7C7C",
"J  c #F07675",
"K  c #72A32E",
"L  c #78A63A",
"P  c #7DAB3B",
"I  c #7BB146",
"U  c #81B33F",
"Y  c #E78D1F",
"T  c #D48828",
"R  c #DB8C2A",
"E  c #E28F28",
"W  c #E39332",
"Q  c #E69238",
"!  c #E79839",
"~  c #EC9839",
"^  c #F5A13E",
"/  c #87B846",
"(  c #8DBC4E",
")  c #8BAE5C",
"_  c #85B853",
"`  c #8FB568",
"'  c #CD8F46",
"]  c #D08E42",
"[  c #E79946",
"{  c #EC9E4A",
"}  c #F0A142",
"|  c #ED807D",
" . c #E1A664",
".. c #93C154",
"X. c #EC7F82",
"o. c #778B8A",
"O. c #0186C1",
"+. c #008FCA",
"@. c #0192CA",
"#. c #049ACF",
"$. c #109CCD",
"%. c #029BD3",
"&. c #019AD7",
"*. c #339EC9",
"=. c #0CA4DC",
"-. c #19A5D8",
";. c #19B0E7",
":. c #24ADE1",
">. c #2CB5EB",
",. c #4BACCF",
"<. c #4AAED0",
"1. c #57B1D3",
"2. c #59B3D5",
"3. c #67B6D7",
"4. c #64B7D9",
"5. c #6FBAD9",
"6. c #74BCD5",
"7. c #70BAD9",
"8. c #838383",
"9. c #8D8D8D",
"0. c #959595",
"q. c #989697",
"w. c #969897",
"e. c #9A9A9A",
"r. c #A2A2A2",
"t. c #ACACAC",
"y. c gray71",
"u. c #B7B8BA",
"i. c #BCBCBC",
"p. c #E18685",
"a. c #EC8484",
"s. c #EF8788",
"d. c #EC8B8B",
"f. c #F08887",
"g. c #F08688",
"h. c #F08E8B",
"j. c #EB908F",
"k. c #EF8F90",
"l. c #EC9393",
"z. c #EC9896",
"x. c #EF9698",
"c. c #EC9C9C",
"v. c #F19393",
"b. c #F09897",
"n. c #F09E9D",
"m. c #C8B78C",
"M. c #CAB890",
"N. c #DCBF9D",
"B. c #E99FA0",
"V. c #ECA4A4",
"C. c #ECA8A7",
"Z. c #EDA7A8",
"A. c #EBABAB",
"S. c #F2A5A6",
"D. c #F1ABAB",
"F. c #E8B0AF",
"G. c #ECB3B3",
"H. c #E7BAB7",
"J. c #ECB8B7",
"K. c #ECB6B9",
"L. c #E7BCBC",
"P. c #EBBCBC",
"I. c #F0B3B3",
"U. c #F2B8B7",
"Y. c #F1BBBC",
"T. c #AEC493",
"R. c #B1C594",
"E. c #B4CFA4",
"W. c #CEC3A3",
"Q. c #DCC1A2",
"!. c #D9C3A5",
"~. c #EACFB2",
"^. c #F1BFC0",
"/. c #87C3DB",
"(. c #9ECBDE",
"). c #BEDCE7",
"_. c #C4C4C4",
"`. c #CBCBCB",
"'. c #CFD5C9",
"]. c #D2D5CC",
"[. c #CFCFD1",
"{. c #D3D3D3",
"}. c #D8D7D5",
"|. c #D9D9D7",
" X c #DDDDDD",
".X c #ECC3C3",
"XX c #E9C4C5",
"oX c #E7C8C6",
"OX c #EAC8C7",
"+X c #E7CCCC",
"@X c #EBCBCB",
"#X c #F2C3C4",
"$X c #F1C7C8",
"%X c #F1CBCB",
"&X c #EBD0CF",
"*X c #F1D0CF",
"=X c #ECCED0",
"-X c #E7D3D2",
";X c #EBD3D3",
":X c #EDD8D7",
">X c #E7D7D8",
",X c #ECD7D8",
"<X c #E7DCDB",
"1X c #ECDCDC",
"2X c #F1D4D4",
"3X c #F4D7D9",
"4X c #F1DCDB",
"5X c #DEE0DF",
"6X c #E1E1DF",
"7X c #ECE0DF",
"8X c #C7DFEB",
"9X c #EBDFE1",
"0X c #F4DEE0",
"qX c #D5E3E4",
"wX c #E4E4E4",
"eX c #ECE4E4",
"rX c #E6E8E7",
"tX c #EAE8E7",
"yX c #E6E6E9",
"uX c #E9E7EC",
"iX c #E6EBEC",
"pX c #ECECEC",
"aX c #F2E4E3",
"sX c #F3E9E7",
"dX c #F3ECEC",
"fX c #F9EFED",
"gX c #E6F0EF",
"hX c #EDF0EF",
"jX c #F2F1EF",
"kX c #FAF0EC",
"lX c #E6EEF3",
"zX c #ECEEF1",
"xX c #F1EFF0",
"cX c #E6F3F3",
"vX c #EBF4F3",
"bX c #E4F8F7",
"nX c #EEF9F7",
"mX c #EEF7F8",
"MX c #E4FAFB",
"NX c #ECFBFB",
"BX c #F3F3F3",
"VX c #FDF5F2",
"CX c #F5F8F7",
"ZX c #FEFAF6",
"AX c #F5F7F9",
"SX c #F3FCFC",
"DX c #FDFDFD",
/* pixels */
"DXDXDXDXDXDXDXpX_.8.q.0.0.0.0.0.q.q.0.0.0.0.q.q.0.0.0.0.q.0.0.0.0.0.q.q.0.0.0.0.q.0.0.0.0.0.q.q.0.0.0.0.q.q.0.0.0.0.q.0.0.0.0.0.0.o._.tXDXDXDXDXDXDXDX",
"DXDXDXDXDXpX`.r.0.q.q.q.q.q.0.0.0.q.q.0.0.0.q.w.q.0.0.0.q.q.q.q.q.0.q.q.0.0.w.0.q.q.q.0.q.0.0.e.q.0.0.0.0.q.q.0.0.0.e.w.q.q.0.0.q.q.q.r.`.pXDXDXDXDXDX",
"DXDXDXDX|.r.0.r.i.{.qXwXwXwXwXwXwXwXwXwXwXwXwXwXwXwXwXwXwXwXwXwXqXwXwXwXwXwXwXwXwXwXwXwXqXwXwXwXwXwXwXwXwXwXwXwXwXwXwXwXwXwXwXqXwX}.i.r.0.r.u.DXDXDXDX",
"DXDXDXy.q.0._.BXDXDXDXDXDXDXDXDXDXDXDXDXDXDXDXDXDXDXDXDXDXDXDXDXDXDXDXDXDXDXDXDXDXDXDXDXDXDXDXDXDXDXDXDXDXDXDXDXDXDXDXDXDXDXDXDXDXDXDXBX_.q.q.y.CXDXDX",
"DXDX|.e.q.|.DXDXCXzXpXpXpXpXpXrXrXpXpXtXrXpXpXpXpXpXpXrXpXpXpXpXpXpXpXpXpXpXpXpXtXpXpXtXpXpXpXpXpXpXpXpXpXpXpXpXpXiXpXpXpXpXpXpXiXpXCXDXDXwXe.0.u.DXDX",
"DXpXr.q.|.DXDXpXwX X5X<X X6X XwX<XwXqXwXqXwXwXwXwXwXwXwXwXwXwXqXwXqX9XqXwXwX9X9XwXqXwXwXwXwX5XwXwXwXwXwX<XqXwXwX5X<X X5XwX X X X<X XwXpXDXDXwXq.r.dXDX",
"DX`.q.i.DXDXpX XwXwX<XqXwXwXwXwXwXwXwXwXeXwXwXwXwXwXwXwXwXwXwXrXpXcXMXMXMXMXMXMXMXbXcXlXrXwXwXwXwXwXwXwXwXwXwXwXwXwXwX6XwXwXwXwX<XwXwX|.wXDXDX`.q.`.DX",
"wXe.e.BXDXpX XwXqX<XwXwX5XwXwXwXwXwXwXwXwXwXwXwXwXwXwXrXiXcXcXiX<XoXF.B.j.a.a.p.z.A.XX>XrXcXcXiXwXwXwXwXwXwXwXwXwXwXwXwXwXwXwXwXwXwXqXwX XpXDXCXr.r.rX",
"wX0.y.DXCX5XwXwXwXwXwXwXwXwXwXwXwXwXrXwXyXwXwXwXwXrXcXbXwXL.d.C k y 9 8 5 5 4 6 7 9 t j n | F.|.cXcXyXqXwXwXwXwXwXwXwXwXwXwXwX9XwXwXwXqXwX<XCXDXu.q.`.",
"e.e.`.DXBX XwXwXwXwXwXwXwXwXwXwXwXwXwXrXpXwXwXrXbXiXoXj.n j j g g u u u t t t t y u u u u f j x H P.rXbXiXwXrXwXwXwXwXwXwXyXwXwXwXwXwX9XwX XjXDX8Xq.I ",
"8.q.|.DXdXwXwXwXwXwXwXwXwXwXwXwXwXwXwXtXwXrXcXlXL.| b k v b v k k j g u u y y u u u j j k k v v k v S F.wXbXrXwXrXwXrXwXwXrXwXwXwXwXwXwXwXwXpXDX,Xq.0.",
"9.0.|.DXpX5XwXwXwXwXwXwXwXtXwXwXtXyXwXwXiXcX@Xa.n n B N n b v k k g y 9 9 9 9 9 9 t u j k v b n n N n n D H.lXcXrXwXrXyXwXwXwXwXwXwXwXwXwXqXuXDXuXq.0.",
"9.q.|.DXpX XwXwXwXwXwXwXwXwXyXwXwXrXwXcXqXV.Z Z D Z C B n v k j j c C D a.d.d.a.H Z b j j j k n N B C Z C C j.<XcXwXwXrXrXwXwXwXwXwXwXwXqX9XuXDX Xq.9.",
"9.q. XDXpXwXwXwXwXwXwXwXtXwXwXtXwXtXvX-Xd.S D F S Z C b x n p.A.&XwXvXbXMXMXMXNXMXcXpX>XG.j.C v v C Z A D F S F P.cXpXwXrXrXtXyXwXtXrXwXwX9XuXDXyXq.q.",
"9.0.|.DXdXwXwXrXwXtXwXpXwXwXpXwXtXcXXX| H | H F D C b F F.eXvXvXvXcXpXrXpXrXpXrXpXrXlXgXbXbXtXXXs.n N A F D a.H H F.iXiXtXwXwXwXwXwXwXyXwXwXdXDXuXq.q.",
"9.q. XDXzXwXwXwXwXrXwXwXpXtXyXrXcXP.p.s.s.a.H D C | L.lXNXvXrXtXpXrXpXpXpXpXtXpXpXpXpXpXpXrXpXvXbX+Xd.Z D H H a.s.X.Z.yXiXtXyXyXyXwXtXwXwXwXuXAXqXq.9.",
"9.q.|.DXvXwXwXwXwXtXwXwXwXpXrXcXP.d.j.d.p.s.F F G.iXNXlXyXpXuXpXyXpXpXpXpXwXpXrXtXyXpXtXtXpXpXyXpXvXcXOXa.S a.a.d.l.p.V.iXlXtXwXyXtXwXyXwXwXpXDXwXq.q.",
"9.q. XDXdXwXwXwXpXwXrXpXpXwXlXXXk.z.l.j.d.H d.,XmXiXrXpXpXyXyXtXpXpXrXrXwXpXpXpXpXpXyXpXpXpXyXtXrXpXpXbXwXV.G a.j.d.z.j.A.iXpXrXwXtXrXwXtXwXpXDXwXe.0.",
"9.0. XDXxXwXrXyXtXwXrXrXwXcX-Xc.c.c.z.j.a.V.iXvXtXpXpXtXpXpXtXpXpXpXpXpXpXpXpXpXpXpXpXpXpXpXpXpXpXpXpXpXvXvXL.H d.z.z.c.z.P.iXpXwXyXtXyXwXwXpXDXwX0.0.",
"9.0.|.DXpXwXwXtXyXtXyXtXpX1XV.B.B.c.z.a.F.vXlXpXpXpXpXpXpXpXpXpXpXtXpXpXpXzXpXpXpXtXyXpXpXtXpXpXpXpXpXrXpXiXvX+Xd.z.z.B.B.c.+XlXtXyXrXrXyXwXpXDXwX0.0.",
"9.q. XDXBXwXtXwXpXrXyXrXpXG.V.Z.V.c.l.J.vXpXiXpXpXpXpXpXpXpXpXpXpXvXvXNXSXvXvXmXvXmXvXvXpXpXpXpXyXpXpXpXpXtXtXvX+Xl.c.V.V.C.A.<XpXrXrXrXwXwXpXDXwXq.9.",
"9.q.|.DXvXwXwXtXrXrXyXvX+XA.F.A.C.z.G.gXiXpXpXpXpXpXpXpXpXpXvXmXpX,XG.c.g.H G f.l.A.OXpXmXvXpXpXpXpXpXpXyXpXpXpXmXXXl.Z.C.A.A.L.iXiXpXrXwXpXpXDXwXq.0.",
"9.w. XDXBXwXyXpXrXpXiX9XG.G.G.A.V.A.pXvXpXpXtXpXpXpXpXpXpXNXpXG.a.V b v v v v v m n B F Z.1XmXvXpXpXpXpXpXpXpXpXpXvXP.B.C.F.F.A.;XpXyXrXpXwXpXDXwX0.0.",
"9.q.|.DXxXwXwXtXrXpXiXoXJ.J.G.A.A.<XgXpXpXpXpXpXpXpXpXvXvX.Xa.V V B B b v c v v m n N V V J A.sXvXpXpXpXpXpXpXpXrXpXiXG.A.F.K.K.P.tXpXtXpXwXBXDXwX0.0.",
"9.q. XDXjXwXrXpXtXgX1XP.P.P.H.A.@XvXpXpXpXpXpXzXdXpXmXpXn.J J Z V n M v z z z z c b n B S J J f.&XNXgXpXzXpXpXpXpXpXhX7XA.G.H.P.P.=XlXwXpXwXdXDXwXq.0.",
"9.w. XDXBXwXpXyXwXpX;XXX.XP.J.P.pXpXpXpXpXhXpXpXpXvX1Xv.H | J Z V M j y i t 9 i y l m B V J H H f.OXCXhXpXpXpXpXpXpXpXgXOXG.P.P..XOXtXpXpXwXBXDXwX0.0.",
"9.q. XDXBXwXyXtXpXtXOXOX.X.XJ.:XvXpXpXpXdXpXdXpXCXeXx.s.f.H J V m v S v.G.#X.XU.V.G M k N J G g.f.d.@XnXpXhXpXdXpXpXpXvXtXP.P..XXXOX<XpXrXwXhXDXwXq.0.",
"9.q. XDXBXwXpXpXiX1XOX@X.X.X.XhXpXpXpXhXpXpXpXvXtXZ.v.l.f.H S n s.*XCXNXSXNXSXNXNXSX1XS.N N H g.h.b.x.,XAXpXpXhXpXpXpXpXvX=XP.XXOXOX;XpXpXwXBXDXwX0.0.",
"9.q. XDXBXwXpXtXpX,X=X@X@X.X,XvXpXhXpXzXdXhXhXmXP.c.c.k.f.D D OXNXSXBXpXvXpXvXdXxXpXSXNX7Xf.Z a.h.x.n.A.pXBXpXpXdXpXpXpXpXtX.X$X@X&X;XtXpXwXBXDXwXe.0.",
"9.0. XDXBXpXyXpXtX,X;X;X@X@XpXhXpXpXhXpXpXhXCX,XZ.S.c.v.| f.aXSXBXxXpXBXBXdXpXBXpXBXdXhXNXCXn.D k.x.V.V..XmXpXhXpXzXhXdXpXzX&X$X&X;X,X7XpXpXpXDXrX0.0.",
"9.w. XDXBXrXpXpXeX<X,X;X;X;XpXpXpXpXzXpXvXBXhXP.D.Z.c.h.f.aXNXpXBXzXvXdXxXvXBXBXBXpXjXhXjXnXCXc.s.b.V.D.I.aXBXzXvXdXzXpXdXvX1X+X;X:X>XeXpXrXhXDXrX0.0.",
"9.0. XDXBXwXpXpXeX1X1X1X;XeXjXpXjXhXjXjXdXmX1XI.I.D.n.d.2XSXBXBXjXBXBXdXBXBXpXBXBXpXBXBXhXBXCXpXb.b.S.I.G.%XvXhXBXpXpXxXpXpXtX&X;X<X1X7XpXrXBXDXwX0.9.",
"9.q. XDXBXwXpXpXeXeX9X4X:XtXvXpXdXpXhXjXvXjX*XP.I.D.n.I.SXvXBXxXBXpXBXjXCXSXSXSXBXvXBXBXzXBXzXSX@Xx.D.G.P.#XpXBXpXpXpXvXdXdXpX1X,X9XeXeXtXpXBXDXwXq.0.",
"9.q. XDXBXpXpXpXtXtXeX1X1XpXjXzXzXvXdXpXjXpX%X#XU.A.S.4XAXBXBXxXBXBXvXSXNXaX1XBXSXCXdXBXBXjXdXCXBXD.D.I.#X#XaXvXpXBXdXpXpXzXpXeX1X9XeXtXuXtXBXDXwXe.0.",
"9.0. XDXBXtXpXpXpXpXpXeXeXdXhXdXpXBXpXBXBXeX%X#X^.G.I.CXBXBXBXBXBXvXSX2Xv 8 0 z D.SXBXBXBXBXvXBXSX%XD.U..X%X1XCXBXpXBXvXvXpXpXaX1XtXtXpXpXpXdXDXwXq.0.",
"9.w. XDXpXpXpXpXpXdXpXaXtXpXdXvXBXpXBXhXBXaX2X%X#XI.@XCXhXBXBXBXBXCX3Xq 4 0 8 6 3 D.SXBXBXBXxXxXSX4XI.^.%X%X4XjXpXBXpXdXdXjXpXpXaXuXdXpXpXtXzXDXwXq.9.",
"9.q. XDXBXpXpXpXpXhXpXpXpXhXdXpXBXpXBXBXBXeX:X2X%XY.4XAXBXBXBXBXCXSXN 4 9 9 9 9 5 9 sXSXBXBXBXCXBXaXY.#X*X;X1XBXBXdXBXpXpXBXpXpXpXpXpXpXpXpXBXDXwX0.0.",
"9.e. XDXBXpXpXpXpXdXhXdXdXvXhXBXpXBXBXjXBXsX4X:X%X#XaXAXBXBXBXBXSXsXe 0 9 9 9 9 9 4 Y.SXBXBXBXBXCXjX#X%X2X4XeXBXBXvXdXBXBXpXjXpXpXdXpXpXpXpXBXDXwXw.9.",
"9.q. XDXBXpXpXpXpXpXpXBXBXpXBXdXpXBXzXjXBXpXaX4X2X%XaXCXVXBXBXBXSXsXq 0 9 8 9 9 9 6 U.SXBXBXBXBXBXjX%X2X4X7XsXBXvXjXBXpXdXvXpXBXdXvXzXpXpXpXBXDXrXq.0.",
"9.e. XDXBXpXpXzXdXdXvXpXpXjXzXxXBXxXBXBXBXBXsXaX4X%XaXAXBXBXAXVXAXSXM 4 9 9 9 9 7 q aXSXBXBXBXBXAXdX*X2X0XsXjXBXBXBXpXBXBXpXBXpXvXpXdXpXpXtXBXDXwXe.0.",
"9.q. XDXBXpXpXBXpXjXzXdXBXpXdXvXBXBXBXpXBXBXjXsX0X3XaXAXAXAXAXAXBXSX%X6 0 w q w 2 b.SXBXBXAXAXBXAXsX2XaXsXdXBXBXxXBXxXBXpXjXpXBXpXpXxXpXpXpXBXDXwXq.0.",
"9.q. XDXBXpXpXpXpXBXjXvXpXBXBXvXBXhXBXBXBXBXBXBXdX0X0XBXBXVXBXCXAXBXDX#Xr 5 8 1 p.DXCXAXBXBXVXBXAXsX0XsXdXBXBXBXdXvXBXzXBXzXzXjXBXpXvXdXdXpXBXDXwXq.9.",
"9.0.5XDXBXpXBXpXjXpXvXpXBXBXxXdXBXBXBXBXBXBXBXCXxXdXaXdXBXBXAXCXAXCXDXSX$ + h   o.DXAXBXCXBXCXAXBXsXaXxXBXBXBXBXBXBXBXBXzXBXjXBXBXpXxXpXzXpXBXDXrXq.0.",
"9.0. XDXBXpXxXpXzXxXdXBXdXvXBXBXxXBXBXBXBXBXBXBXBXVXdXdXCXZXBXCXAXCXDX`.  = qX  @ BXDXAXBXCXwX{.{.{.{.}.}.|.{.}.}.{.{.}.{.{.{.{.}.|.zXxXpXpXBXDXrX0.0.",
"9.q. XDXBXpXBXpXBXpXBXpXpXBXxXBXBXBXBXBXBXBXBXCXBXCXVXfXBXAXVXAXVXCXDX8.  r.DX*   i.DXCXCXCX XpXdXBXBXAXCXAXCXCXDXCXDXDXDXDXDXDXDXwXdXpXvXdXBXDXwXq.0.",
"9.q. XDXBXpXpXBXpXjXjXBXBXxXBXxXBXBXBXBXBXBXAXAXBXAXAXAXVXCXAXAXAXDXDX%   y.DXy.  > DXZXZXCX<XuXyX[.`.[.[.[.[.{.[.{.{.{.{.{.}.}.{._.[.{.pXpXBXDXrXe.0.",
"9.q. XDXBXpXBXpXBXzXvXdXBXdXBXBXBXBXBXBXAXAXVXBXBXZXAXZXCXAXAXVXVXDX}..   . % < . O pXDXCXAX<XpX{.`.<X|.}.|.|. X X X X X5X9XqX<XwXyXwX X}.pXCXDXwXq.0.",
"9.q. XDXBXpXvXdXpXBXdXBXvXBXBXBXBXBXBXBXVXCXBXBXAXBXAXBXAXZXAXZXCXDX9.  & * .       t.DXCXZX XlX{.[.wXpXpXpXpXpXpXdXjXzXvXBXBXBXBXCXBXCXCXpXBXDXwXq.9.",
"9.0. XDXBXpXBXBXpXBXBXBXzXBXjXBXBXVXBXBXAXBXBXZXAXVXAXCXDXAXAXAXDXDX&   {.DX X@     - DXDXCX<XyX[.`.wXBXzXBXCXAXAXAXAXZXCXCXDXDXDXAXCXDXCXpXBXDXwXw.0.",
"9.0. XDXBXpXvXdXvXxXdXvXBXBXBXBXBXBXBXAXCXVXAXAXBXCXAXDXAXVXZXCXDX|.. # DX_.$   # @ X  XDXCX5XpX[.'.wXpXrX`.`.[.].{.{.|. X X X9XrXCXAXVXCXpXBXDXpXq.0.",
"9.q. XDXBXjXdXvXdXvXBXBXdXBXBXBXBXAXBXBXAXVXAXVXZXAXVXAXCXDXZXCXDXe.  8.0.    > BX8.  0.DXCXwXtX{.`.wXzX<X9.0.q.e.r.r.t.t.y.y.u.`.BXBXCXZXpXBXDXwXe.0.",
"9.q. XDXBXpXzXdXBXdXdXBXvXBXBXBXBXBXCXAXBXCXAXCXAXCXAXZXCXDXAXDXDX-   O   O r.DXDX`.  % DXDXqXrX`.`. XpXtX[.[.{.{.|.|. X X5X9XwXpXBXBXBXAXuXxXDXwXq.9.",
"9.q. XDXBXBXpXBXBXxXdXBXBXBXBXBXBXBXBXVXBXAXVXAXAXZXVXAXDXAXDXDXpXo     * pXDXDXDXDX%   `.DXwXwX[.`.<XrXrXpXzXpXpXCXAXAXSXSXAXZXDXDXZXCXBXyXBXDXrXe.9.",
"9.0. XDXBXpXBXpXdXvXBXBXBXBXBXBXAXBXAXBXVXAXCXAXVXAXAXZXAXDXCXDXt.      @ ; q.{.CXDXr.  8.DX<XrX`.`. XpXwXrXrXuXpX>XN.N.Q.~.8X(.(.(.).VXBXtXCXDXwXe.0.",
"9.0. XDXBXpXBXBXBXvXxXBXBXBXBXBXVXCXBXAXAXCXZXAXAXAXZXCXDXAXDXDX;   , > O       @ > 0.. # BXwXwX`.`. XtXwXwXrXyXvX!.a E E [ 4.%.=.&.<.ZXBXtXBXDXwXe.0.",
"9.0.5XDXBXBXpXBXBXdXBXBXBXBXBXBXBXBXBXAXAXVXCXAXAXDXAXDXDXZXDXxXo O CXDXpX_.9.* @         i.wXwX`.`.|.wXwXpXzXzXAX!.Y } ^ } 7.&.>.;.2.ZXBXyXBXDXwXe.0.",
"9.q. XDXAXpXBXpXBXzXBXBXdXBXBXBXAXBXAXAXBXCXAXVXAXAXZXCXDXCXDXy.  ; DXDXDXDXDXCXe.O       > wXwX`.`. XrX5XR.T.R.E.!.d ! ~ { 5.&.:.;.2.VXBXtXBXDXrX0.0.",
"9.q. XDXAXpXpXBXjXBXBXBXBXBXBXCXVXBXBXZXAXZXAXZXZXDXCXDXCXDXDX>   r.DXDXDX|.8.#     % 8.o o }.qX`._.}.rX'.K U / I M.d W W { 5.%.-.=.2.VXdXwXBXDXwX0.0.",
"9.0. XDXVXpXvXdXBXBXBXBXBXBXBXBXBXAXVXBXAXAXAXCXAXZXDXCXDXDXBXO o BXDXi.-       * u.CXDX:   r.9X_._.}.rX'.U ( .._ M.s R E [ 5.@.-.#.1.VXzXwXBXDXrXe.9.",
"9.q. XDXBXpXjXzXpXBXBXpXBXBXBXBXBXAXCXAXBXZXVXAXAXAXBXBXBXDX_.  & e.$     # 8. XDXDXdXDXy.  > wX_.`.}.eX].L / ( _ M.s T R [ 7.+.$.#.1.VXpXwXBXDXrX0.0.",
"9.0. XDXCXdXBXBXBXBXvXBXzXBXBXBXBXBXAXAXZXCXBXBXBXxXxXxXpXDX<   .     O q.tXDXDXAXCXCXDXDX# $ 5X_._.{.yX[.K P I I m.p s s Q 3.O.@.+.,.VXpXwXBXDXwXe.0.",
"9.0. XDXBXpXvXdXpXdXBXBXBXBXBXBXAXZXBXZXCXCXBXBXxXdXpXpXpXdX$           O O @ & - , 8.0.i.; $ 5X`._.{.wX[.) ) ) ` W.] ' ]  ./.*.*.*.6.fXpXwXBXDXrXe.0.",
"9.q. XDXBXpXdXvXBXBXBXdXBXBXBXBXCXBXBXVXCXAXBXxXdXpXpXrXBX_.  $ e.< : * $ @ o               # 5X_._.[.9X XuXyXuXuXuXlXlXlXzXsXkXfXVXdXtXpXwXBXDXwXq.9.",
"9.q. XDXBXpXBXdXBXzXBXBXBXBXBXBXBXBXAXAXBXBXBXBXzXpXyXrXCX<   9.DXBXBXpXwX}.`.i.t.r.9.< ; * & 5X_._.[.5X{.i.i._._._._.`.[.'.{.{.}.|.|.wXpX XBXDXwXe.0.",
"r.0. XDXBXpXBXBXzXBXBXBXBXBXBXBXBXCXAXAXAXVXBXdXpXpXpXpXCX$   _.dX X X|. X X5XwXwXpXpXzXpXDX0. X_._.[. X{.y.y.u.i.i.i._._._.`.`.{.{.{.wXpX|.dXCXwXq.0.",
"y.0.`.DXCXxXBXpXBXdXjXBXBXpXBXBXBXBXBXVXAXBXBXBXBXvXpXpXpXi.q.wXyXwXqX<X5X9X5X5X X5X9X X|.qXi.<Xi._.[. X{.y.y.y.i.i._._._.`.`.`.[.{.{.wXpX{.5XBX{.q.< ",
" X0.y.DXDXBXpXBXBXvXBXxXBXBXBXBXBXBXBXAXAXVXVXAXBXVXdXBXpXDXDXpXrXyXyXwXwXwXrXwXwXwXwXqX X}._.|._._.`. X].y.y.i.i.i.i._._.`.`.`.].{.{.qXpX[. XpXi.q.`.",
"|.e.e.BXDXCXpXdXdXBXxXBXBXBXBXBXBXBXVXAXAXAXCXCXAXAXBXBXBXBXBXpXdXzXdXxXpXpXpXpXpXpXdXpXwX X{.`.i._.`. X[.y.u.i.i.i._._._.`.`.`.[.{.{.9XpX`. XyXr.r.wX",
"DX_.w.i.DXDXBXBXdXvXxXBXBXBXBXBXBXBXAXVXBXBXAXVXVXAXDXCXCXAXAXVXCXVXAXxXAXxXxXVXBXBXBXBXxXyXwXwX`._.`.|.[.y.y.y.i.i.i._._._.`.`.`.{.[.<XwX[.<X_.q.`.DX",
"DXwXe.0.}.DXDXBXBXBXdXvXpXxXBXBXBXBXBXAXBXAXAXCXAXBXAXCXCXDXDXCXCXCXCXDXZXDXAXAXDXCXDXCXBXdXwXwX}.y._.wX X X X<X XwXwX5XwXwXwXwXwXrXwXtXpX[.`.w.r.pXDX",
"DXDXwXr.q.{.DXDXDXCXCXCXBXCXCXCXCXCXDXCXCXDXCXCXDXDXDXDXCXDXDXCXDXDXDXDXDXDXDXAXDXDXCXDXCXBXBXpXpX5Xi.`._._._.`.`._.`.`.`.[.[.[.}.{.{.}.}.`.e.e. XDXDX",
"DXDXDXwXr.q.i.BXDXDXDXDXDXDXDXDXDXDXDXDXDXDXDXDXDXDXDXDXDXDXDXDXDXDXDXDXDXDXDXDXDXDXDXDXDXDXDXDXCXSXBXpXpXpXpXpXpXpXpXpXpXpXpXpXpXpXpXqXi.e.e.t.DXDXDX",
"DXDXDXDXwXe.e.r.i.`.|. X X X X X X X X X X X XyX<X XqX<X<XqX9XqXqX9XqX9X X XqX5X9XqX X9X XqX9XqX9X5X5X5X9X X9X X X5X X5X5X X5X5X X[.i.e.0.e.}.DXDXDXDX",
"DXDXDXDXDXwX_.e.0.0.q.q.q.0.q.0.q.q.q.q.q.q.q.q.w.w.q.e.w.w.q.q.q.q.q.q.q.q.q.q.q.q.q.q.q.q.q.q.q.q.q.q.q.q.w.0.w.0.q.0.w.q.q.q.q.0.q.e.`.pXDXDXDXDXDX",
"DXDXDXDXDXDXDX X5Xw.8.0.9.9.9.9.9.8.9.8.8.8.8.8.8.8.8.8.< 8.) < 8.8.< 8.< 8.< 8.< < < 8.8.8.8.8.o.8.8.8.8.8.8.8.8.8.8.9.8.9.9.0.8.e.qX9XDXDXDXDXDXDXDX"
};
